<svg xmlns="http://www.w3.org/2000/svg" width="1280" height="853" viewBox="0 0 1280 853" version="1.1"><path d="M 831.046 49.444 C 829.231 51.632, 830.525 54.206, 833.246 53.820 C 834.894 53.586, 835.500 52.832, 835.500 51.014 C 835.500 48.096, 832.920 47.187, 831.046 49.444 M 765.280 58.020 C 762.941 58.961, 761.385 62.955, 762.364 65.506 C 762.683 66.337, 764.063 67.527, 765.431 68.151 C 771.245 70.800, 776.021 62.230, 770.777 58.557 C 768.267 56.798, 768.307 56.802, 765.280 58.020 M 736.040 64.452 C 734.314 66.531, 735.165 69.449, 737.598 69.798 C 740.591 70.228, 742.437 67.685, 741.034 65.064 C 739.742 62.649, 737.740 62.404, 736.040 64.452 M 877.667 64.667 C 877.300 65.033, 877 66.158, 877 67.167 C 877 69.476, 880.807 69.666, 881.677 67.399 C 882.497 65.263, 879.269 63.064, 877.667 64.667 M 890.146 66.324 C 889.237 67.419, 889.311 68.013, 890.475 68.979 C 892.432 70.603, 895.242 69.493, 894.812 67.265 C 894.384 65.039, 891.667 64.492, 890.146 66.324 M 835.357 73.512 C 834.925 74.638, 835.109 75.536, 835.820 75.773 C 836.469 75.990, 837 76.804, 837 77.583 C 837 78.362, 837.705 79, 838.567 79 C 840.380 79, 839.701 75.464, 837.429 73.072 C 836.260 71.842, 835.975 71.902, 835.357 73.512 M 725.500 77 C 724.577 78.494, 725.861 80, 728.059 80 C 729.333 80, 730 79.313, 730 78 C 730 75.879, 726.653 75.135, 725.500 77 M 642.613 77.720 C 642.217 78.116, 640.913 78.453, 639.715 78.470 C 637.127 78.506, 636.123 81.726, 638.425 82.609 C 639.911 83.180, 644.944 79.451, 644.983 77.750 C 645.005 76.796, 643.556 76.778, 642.613 77.720 M 816 82.070 C 816 83.641, 816.539 84.062, 818.240 83.820 C 821.564 83.345, 821.856 80, 818.573 80 C 816.638 80, 816 80.513, 816 82.070 M 592.197 83.646 C 592.704 85.583, 590.953 88, 589.042 88 C 587.708 88, 587.681 90.685, 589.007 91.504 C 589.561 91.847, 590.278 91.440, 590.599 90.601 C 590.921 89.763, 592.015 88.813, 593.029 88.491 C 595.215 87.797, 595.257 82.919, 593.083 82.194 C 592.127 81.876, 591.852 82.326, 592.197 83.646 M 656.500 82.834 C 655.950 83.354, 651 84.291, 645.500 84.916 C 632.069 86.441, 625.619 87.631, 612 91.095 C 596.510 95.034, 594 95.465, 594 94.184 C 594 93.598, 594.472 92.826, 595.049 92.470 C 595.766 92.026, 595.731 91.380, 594.935 90.422 C 593.220 88.356, 591.985 89.673, 592.626 92.882 C 593.180 95.649, 593.049 95.734, 582.844 99.217 C 577.155 101.159, 570.151 103.692, 567.280 104.847 L 562.061 106.947 562.655 103.973 C 563.195 101.273, 563.007 101, 560.594 101 C 557.016 101, 556.027 103.794, 558.808 106.046 C 560.746 107.615, 560.786 107.838, 559.225 108.391 C 558.276 108.726, 556.938 109.263, 556.250 109.584 C 555.422 109.970, 555 109.294, 555 107.583 C 555 105.511, 554.517 105, 552.559 105 C 551.216 105, 549.876 105.392, 549.580 105.871 C 549.284 106.350, 547.718 107.006, 546.101 107.330 C 542.401 108.070, 540.911 111.731, 543.531 113.646 C 545.226 114.886, 545.223 114.977, 543.463 115.652 C 542.363 116.075, 541.461 115.884, 541.227 115.180 C 540.612 113.337, 537.180 113.795, 536.070 115.869 C 535.520 116.896, 535.391 118.058, 535.784 118.450 C 536.499 119.166, 533.326 122, 531.809 122 C 531.364 122, 531 121.325, 531 120.500 C 531 119.667, 530.111 119, 529 119 C 527.900 119, 527 119.419, 527 119.930 C 527 120.442, 526.023 121.005, 524.828 121.180 C 523.634 121.356, 522.471 122.063, 522.245 122.750 C 521.706 124.388, 527.170 124.430, 528.800 122.800 C 529.460 122.140, 530 121.922, 530 122.315 C 530 123.094, 523.966 126.990, 522.750 126.996 C 522.337 126.998, 522 126.325, 522 125.500 C 522 123.062, 519.754 123.776, 515.694 127.505 C 513.601 129.427, 511.512 131, 511.051 131 C 510.591 131, 509.955 131.675, 509.638 132.500 C 509.322 133.325, 508.149 134, 507.031 134 C 505.912 134, 505 134.659, 505 135.469 C 505 136.413, 505.625 136.738, 506.750 136.381 C 507.864 136.027, 507.474 136.770, 505.678 138.426 C 504.125 139.858, 502.390 140.741, 501.821 140.389 C 501.128 139.961, 501.163 139.518, 501.927 139.045 C 502.554 138.657, 502.776 137.579, 502.419 136.648 C 501.838 135.135, 501.529 135.196, 499.493 137.228 C 498.241 138.478, 496.164 140.229, 494.878 141.119 C 492.847 142.525, 492.719 142.956, 493.907 144.388 C 495.080 145.801, 495.019 146.322, 493.483 148.019 C 490.954 150.813, 490.277 150.492, 490.804 146.750 L 491.262 143.500 488.491 146.453 C 486.870 148.180, 486.192 149.564, 486.859 149.786 C 488.801 150.434, 488.123 152.758, 485.359 154.933 C 483.188 156.640, 482.442 156.786, 481.171 155.755 C 479.857 154.688, 479.732 154.782, 480.333 156.384 C 480.893 157.877, 478.461 160.880, 468.589 170.884 C 461.742 177.823, 454.943 184.963, 453.481 186.750 C 452.019 188.537, 450.161 190, 449.352 190 C 448.544 190, 448.158 190.446, 448.495 190.992 C 448.832 191.537, 447.699 194.031, 445.976 196.534 C 443.632 199.942, 442.383 200.939, 441.007 200.502 C 438.758 199.788, 437.431 201.609, 438.905 203.386 C 440.193 204.938, 439.351 206, 436.833 206 C 435.667 206, 435 205.273, 435 204 C 435 202.825, 434.333 202, 433.383 202 C 432.259 202, 431.926 202.609, 432.290 204 C 432.701 205.572, 432.320 206, 430.513 206 C 429.249 206, 427.913 205.215, 427.545 204.257 C 426.932 202.660, 426.733 202.692, 425.188 204.633 C 423.852 206.310, 421.963 206.887, 416.136 207.394 C 409.351 207.985, 408.831 207.896, 409.515 206.268 C 409.923 205.295, 410.485 203.443, 410.764 202.151 C 411.172 200.260, 410.903 199.871, 409.386 200.161 C 408.165 200.394, 407.173 201.840, 406.574 204.261 C 406.064 206.317, 405.115 208, 404.464 208 C 402.323 208, 394.020 216.108, 391.306 220.849 C 389.842 223.407, 388.543 225.644, 388.419 225.819 C 388.296 225.995, 387.258 225.554, 386.114 224.839 C 384.350 223.738, 383.776 223.796, 382.352 225.219 C 380.963 226.608, 380.895 227.169, 381.958 228.450 C 382.666 229.302, 383.865 230, 384.622 230 C 386.537 230, 386.347 232.035, 383.904 237.667 C 382.751 240.325, 381.367 243.625, 380.829 245 C 379.924 247.314, 379.755 247.370, 378.565 245.750 C 376.941 243.539, 374.133 243.489, 373.301 245.658 C 372.883 246.747, 373.597 248.117, 375.383 249.653 L 378.101 251.991 375.933 260.025 C 374.051 266.999, 373.516 267.981, 371.877 267.461 C 369.744 266.784, 368.411 269.022, 369.405 271.613 C 369.881 272.854, 370.339 272.963, 371.395 272.087 C 372.451 271.211, 372.909 271.319, 373.383 272.556 C 374.469 275.387, 374.045 278, 372.500 278 C 370.716 278, 370.488 279.663, 372.194 280.231 C 373.089 280.530, 372.950 282.493, 371.639 288.065 C 370.678 292.154, 369.939 295.950, 369.999 296.500 C 371.204 307.664, 371.130 309.987, 369.589 309.396 C 368.715 309.060, 368 309.284, 368 309.893 C 368 310.502, 368.697 311, 369.550 311 C 370.805 311, 371.043 312.094, 370.800 316.750 C 370.547 321.604, 370.149 322.654, 368.246 323.489 C 365.230 324.812, 365.944 326.414, 369.570 326.461 C 372.152 326.495, 372.538 326.897, 372.820 329.839 C 373.178 333.574, 370.460 336.627, 368.342 334.869 C 367.694 334.331, 366.938 334.291, 366.637 334.778 C 365.855 336.044, 367.057 340, 368.224 340 C 368.768 340, 368.955 339.325, 368.638 338.500 C 367.990 336.810, 369.533 336.435, 370.525 338.041 C 370.879 338.613, 372.021 338.811, 373.063 338.480 C 374.650 337.976, 375.062 338.536, 375.606 341.939 C 375.963 344.173, 376.761 346.007, 377.378 346.015 C 377.995 346.024, 379.134 346.432, 379.910 346.923 C 381.084 347.666, 381.107 348.328, 380.046 350.888 C 379.346 352.578, 379.058 355.095, 379.406 356.481 C 379.905 358.468, 380.667 359, 383.019 359 C 385.216 359, 386 359.470, 386 360.789 C 386 361.772, 386.900 364.342, 388 366.500 C 390.374 371.157, 390.352 371, 388.655 371 C 386.959 371, 383.454 374.788, 384.335 375.669 C 384.696 376.030, 386.072 375.833, 387.392 375.231 C 389.608 374.222, 389.844 374.383, 390.456 377.319 C 390.821 379.068, 391.507 383.875, 391.981 388 C 392.454 392.125, 393.541 400.424, 394.396 406.441 C 395.251 412.459, 395.781 417.552, 395.573 417.760 C 395.365 417.968, 394.237 417.545, 393.067 416.819 C 391.270 415.705, 390.791 415.733, 389.986 417 C 388.483 419.364, 389.462 420.520, 392.746 420.262 C 396.503 419.966, 397.181 420.815, 399.971 429.317 C 402.042 435.630, 402.087 436.259, 400.575 437.817 C 395.774 442.764, 393 446.079, 393 446.868 C 393 448.750, 396.036 450.208, 398.610 449.562 C 400.961 448.972, 401.186 448.536, 400.698 445.528 C 400.293 443.031, 400.558 442, 401.719 441.554 C 404.055 440.658, 404.522 441.662, 404.289 447.084 C 404.109 451.288, 404.348 452, 405.941 452 C 407.066 452, 408.199 453.090, 408.800 454.750 C 409.347 456.262, 410.086 458.212, 410.441 459.083 C 410.965 460.370, 410.517 460.583, 408.043 460.220 C 405.315 459.819, 405 460.043, 405 462.387 C 405 465.372, 407.903 466.026, 409.991 463.511 C 410.671 462.692, 411.647 462.282, 412.162 462.600 C 412.718 462.944, 412.637 463.733, 411.962 464.545 C 410.738 466.021, 411.446 468, 413.199 468 C 414.923 468, 416.934 471.269, 416.968 474.128 C 416.986 475.573, 417.675 477.315, 418.500 478 C 420.196 479.408, 420.516 483.563, 419 484.500 C 417.187 485.620, 417.955 486.831, 420.886 487.475 C 423.054 487.951, 424.409 489.335, 426.327 493.032 C 427.750 495.776, 428.465 498.213, 427.941 498.537 C 427.423 498.856, 427 500.216, 427 501.559 C 427 504.352, 429.442 504.895, 430.430 502.322 C 430.953 500.959, 431.536 501.325, 433.537 504.269 C 434.892 506.263, 436 508.593, 436 509.447 C 436 510.301, 436.652 511, 437.449 511 C 438.246 511, 440.143 512.688, 441.665 514.750 C 443.187 516.813, 446.126 520.576, 448.195 523.114 C 451.934 527.698, 451.945 527.740, 449.956 529.540 C 448.453 530.900, 448.265 531.546, 449.204 532.126 C 449.918 532.567, 451.206 532.219, 452.206 531.313 C 453.808 529.864, 454.013 529.870, 454.591 531.377 C 454.939 532.283, 454.668 533.695, 453.989 534.513 C 452.198 536.671, 454.610 539.308, 457.815 538.695 C 459.808 538.314, 461.457 539.508, 466.876 545.259 C 470.519 549.126, 473.368 552.899, 473.206 553.645 C 473.033 554.442, 473.762 555, 474.975 555 C 476.706 555, 476.931 555.425, 476.374 557.645 C 475.772 560.045, 475.932 560.236, 478.105 559.714 C 479.845 559.296, 481.452 559.944, 483.981 562.085 C 487.117 564.740, 487.333 565.238, 486.156 567.122 C 485.030 568.926, 485.126 569.506, 486.859 571.356 C 488.394 572.995, 488.629 573.925, 487.855 575.302 C 486.712 577.336, 488.282 580, 490.622 580 C 491.380 580, 492 580.900, 492 582 C 492 583.100, 492.450 584, 493 584 C 493.550 584, 494 583.100, 494 582 C 494 580.900, 493.550 580, 493 580 C 492.450 580, 492 579.094, 492 577.986 C 492 576.879, 491.446 575.086, 490.770 574.003 C 489.769 572.401, 489.816 571.758, 491.020 570.566 C 492.322 569.277, 493.041 569.518, 497 572.567 C 499.475 574.474, 502.961 576.970, 504.747 578.114 L 507.993 580.193 505.997 582.732 C 500.912 589.195, 506.674 596.365, 514.529 593.350 C 515.461 592.993, 516.814 591.306, 517.536 589.600 C 518.725 586.795, 518.920 586.690, 519.580 588.500 C 520.900 592.116, 522.068 593.034, 524.020 591.989 C 525.418 591.241, 527.272 591.897, 532.165 594.868 C 535.649 596.984, 540.884 599.923, 543.797 601.398 C 546.710 602.874, 549.345 604.735, 549.652 605.535 C 549.959 606.334, 550.585 606.756, 551.045 606.472 C 552.470 605.591, 575.403 615.170, 577.196 617.395 C 578.521 619.040, 579.157 619.236, 580.103 618.293 C 581.048 617.351, 581.935 617.530, 584.156 619.111 C 585.799 620.281, 587.779 620.888, 588.847 620.549 C 590.906 619.895, 603.855 625.529, 605.589 627.833 C 606.372 628.873, 607.168 629.006, 608.421 628.304 C 609.620 627.633, 612.401 627.858, 617.332 629.023 L 624.500 630.718 624.172 634.360 C 623.929 637.053, 624.281 638.171, 625.523 638.647 C 627.664 639.469, 629.185 637.200, 628.485 634.228 C 627.777 631.216, 630.763 629.955, 632.613 632.486 C 633.706 633.980, 634.205 634.075, 635.469 633.026 C 636.708 631.998, 637.294 632, 638.542 633.035 C 639.612 633.923, 639.766 634.634, 639.042 635.358 C 636.121 638.279, 639.600 643.858, 643.428 642.389 C 645.429 641.621, 645.483 637.123, 643.500 636.362 C 642.675 636.045, 642 635.384, 642 634.893 C 642 633.444, 645.650 633.873, 646.983 635.479 C 647.924 636.613, 648.677 636.708, 650.215 635.885 C 652.966 634.413, 667.986 635.759, 670.151 637.672 C 671.258 638.650, 672.018 638.779, 672.460 638.065 C 673.478 636.417, 682.896 636.753, 684.643 638.500 C 685.468 639.325, 685.796 640, 685.371 640 C 684.947 640, 685.101 640.501, 685.713 641.113 C 686.325 641.725, 687.376 641.886, 688.049 641.470 C 688.924 640.929, 688.592 640.191, 686.886 638.879 L 684.500 637.044 687.191 637.022 C 690.449 636.995, 691.623 638.545, 689.909 640.610 C 688.854 641.881, 689.119 642.538, 691.510 644.593 C 693.911 646.657, 694.592 646.837, 695.721 645.707 C 696.835 644.594, 696.843 643.925, 695.767 641.852 C 695.052 640.473, 693.911 639.530, 693.233 639.756 C 691.404 640.365, 691.736 638.315, 693.582 637.607 C 697.192 636.222, 702.969 636.977, 704.232 639 C 704.919 640.100, 706.048 641, 706.741 641 C 708.369 641, 708.376 639.307, 706.750 638.700 C 705.911 638.386, 706.089 637.990, 707.293 637.493 C 708.279 637.086, 709.404 637.071, 709.793 637.460 C 710.182 637.849, 710.725 648.187, 711 660.434 C 711.532 684.109, 711.936 686, 716.467 686 C 721.232 686, 721.691 684.027, 722.357 660.671 C 722.700 648.665, 723.242 638.418, 723.562 637.899 C 723.883 637.381, 724.939 637.938, 725.910 639.138 C 728.110 641.854, 730.231 640.775, 729.809 637.154 C 729.566 635.064, 729.925 634.500, 731.500 634.500 C 733.404 634.500, 733.532 635.387, 734.161 653 C 734.525 663.175, 734.825 689.704, 734.828 711.953 C 734.833 749.533, 734.959 752.497, 736.608 753.703 C 738.955 755.419, 742.464 755.351, 743.950 753.560 C 744.829 752.501, 745.118 743.190, 745.042 718.310 C 744.954 689.630, 745.242 682.300, 746.935 670 C 749.868 648.704, 750.915 643.127, 753.164 636.822 C 755.124 631.328, 755.395 631.057, 761.516 628.456 C 764.995 626.977, 768.790 624.676, 769.950 623.343 C 771.109 622.009, 772.523 621.205, 773.092 621.557 C 773.661 621.908, 774.885 621.512, 775.813 620.675 C 778.490 618.262, 785.326 616.310, 789.847 616.668 C 793.912 616.989, 795.576 615.542, 792.499 614.361 C 791.434 613.952, 792.048 613.250, 794.618 611.940 C 797.693 610.372, 798.445 610.302, 799.616 611.473 C 800.374 612.231, 800.750 613.488, 800.452 614.265 C 800.153 615.043, 800.554 616.215, 801.343 616.869 C 802.487 617.819, 803.382 617.549, 805.782 615.530 C 807.436 614.138, 809.110 613, 809.503 613 C 810.397 613, 814.959 608.726, 814.983 607.867 C 814.992 607.518, 814.100 606.998, 813 606.710 C 810.058 605.941, 810.560 604.421, 814.250 602.928 C 816.038 602.205, 817.725 601.356, 818 601.042 C 818.275 600.727, 822.289 598.007, 826.921 594.997 C 832.364 591.459, 835.487 589.961, 835.754 590.762 C 836.410 592.730, 838 592.197, 838 590.010 C 838 588.232, 846.142 581.094, 848.250 581.025 C 848.663 581.011, 849 587.885, 849 596.300 C 849 612.043, 849.457 614, 853.129 614 C 857.193 614, 857.712 611.862, 858.476 591.956 C 859.208 572.871, 859.222 572.783, 861.990 569.685 L 864.769 566.574 865.527 582.537 C 865.944 591.317, 866.027 612.295, 865.710 629.156 C 865.177 657.586, 865.263 659.928, 866.896 661.406 C 869.229 663.517, 871.581 663.419, 873.884 661.116 C 875.689 659.311, 875.745 657.350, 875.237 613.787 L 874.706 568.342 878.086 561.477 C 879.945 557.701, 881.473 554.057, 881.483 553.380 C 881.509 551.510, 890.911 541, 892.558 541 C 893.351 541, 894 540.480, 894 539.844 C 894 539.209, 895.197 537.120, 896.659 535.202 C 899.068 532.045, 899.436 531.876, 900.563 533.418 C 901.295 534.417, 902.063 534.708, 902.425 534.121 C 902.764 533.572, 902.288 532.701, 901.367 532.185 C 899.914 531.372, 900.457 530.272, 905.469 523.874 C 908.647 519.818, 911.827 516.623, 912.536 516.774 C 913.322 516.941, 913.654 516.355, 913.388 515.274 C 913.147 514.298, 913.974 511.961, 915.225 510.080 C 916.476 508.200, 917.950 505.933, 918.500 505.043 C 919.050 504.153, 921.134 500.967, 923.132 497.962 C 927.577 491.277, 930.504 486.189, 934.018 479.038 C 936.614 473.755, 936.743 473.651, 937.932 475.873 C 939.636 479.056, 940.241 477.989, 938.905 474.157 C 937.924 471.344, 938.205 470.148, 941.406 463.494 C 943.389 459.373, 945.507 456, 946.113 456 C 946.718 456, 946.939 455.284, 946.603 454.409 C 946.268 453.534, 946.615 451.396, 947.375 449.659 C 948.135 447.921, 949.530 444.344, 950.477 441.709 C 951.882 437.794, 952.453 437.131, 953.598 438.082 C 955.180 439.394, 957.342 438.098, 959.124 434.768 C 960.506 432.186, 958.397 429.426, 956.343 431.130 C 954.446 432.705, 953.772 431.756, 954.560 428.618 C 954.979 426.948, 955.902 426, 957.108 426 C 958.149 426, 959 425.502, 959 424.893 C 959 424.284, 958.325 424.045, 957.500 424.362 C 955.645 425.073, 955.632 424.164, 957.400 417.654 C 959.770 408.930, 961.749 398.910, 962.962 389.500 C 963.599 384.550, 964.532 378.025, 965.034 375 C 965.536 371.975, 966.045 364.212, 966.164 357.750 C 966.360 347.160, 966.561 346, 968.191 346 C 969.454 346, 970 345.245, 970 343.500 C 970 340.389, 968.490 340.239, 967.476 343.250 C 966.764 345.363, 966.691 345.319, 966.271 342.529 C 966.024 340.888, 966.311 339.396, 966.912 339.196 C 968.478 338.674, 968.253 337, 966.617 337 C 965.618 337, 965.046 334.851, 964.553 329.250 C 963.908 321.914, 960.867 302.609, 959.158 295 C 958.564 292.353, 958.828 290.676, 960.243 288.119 C 962.327 284.351, 961.949 281.699, 959.463 282.652 C 958.343 283.082, 958.032 283.992, 958.445 285.636 C 958.771 286.936, 958.631 288, 958.133 288 C 956.813 288, 956.063 281.713, 957.212 280.284 C 957.749 279.615, 957.982 278.490, 957.730 277.784 C 957.477 277.078, 957.675 275.712, 958.170 274.750 C 959.119 272.905, 957.667 269, 956.032 269 C 955.539 269, 954.830 269.959, 954.458 271.132 C 953.938 272.771, 953.587 272.950, 952.943 271.909 C 952.456 271.119, 952.544 270.282, 953.156 269.904 C 954.306 269.193, 952.578 265, 951.136 265 C 950.699 265, 949.303 262.637, 948.034 259.750 C 946.765 256.863, 945.015 253.046, 944.145 251.268 C 941.763 246.397, 943.841 245.058, 947.684 248.988 C 951.062 252.443, 954.320 252.249, 953.803 248.623 C 953.593 247.152, 952.813 246.524, 951.263 246.578 C 949.927 246.625, 948.792 245.919, 948.445 244.828 C 947.828 242.882, 944.532 242.330, 943.500 244 C 942.419 245.749, 941.416 245.095, 939.719 241.538 C 938.703 239.406, 938.446 237.843, 939.051 237.469 C 939.591 237.135, 939.769 236.436, 939.447 235.915 C 939.125 235.394, 938.393 235.257, 937.819 235.612 C 937.246 235.966, 936.384 235.636, 935.904 234.878 C 934.522 232.696, 934.836 232.006, 937.250 231.921 C 938.487 231.878, 938.938 231.615, 938.250 231.338 C 937.563 231.060, 937 229.901, 937 228.762 C 937 226.804, 936.898 226.783, 935.136 228.377 C 933.373 229.973, 933.182 229.927, 931.613 227.532 C 930.700 226.139, 930.302 224.990, 930.727 224.978 C 931.152 224.966, 932.594 224.115, 933.931 223.087 C 936.165 221.370, 936.231 221.088, 934.752 219.609 C 932.722 217.580, 931.561 217.582, 929.524 219.619 C 928.633 220.510, 927.775 221.072, 927.617 220.869 C 927.458 220.666, 924.809 216.823, 921.729 212.329 C 916.130 204.160, 916.129 204.158, 918.314 202.688 L 920.500 201.217 917.942 200.035 C 916.534 199.385, 914.886 197.537, 914.278 195.927 C 913.671 194.317, 912.685 193, 912.087 193 C 910.549 193, 910.739 195.273, 912.468 197.559 C 913.276 198.626, 913.951 199.868, 913.968 200.317 C 913.986 200.766, 911.551 198.081, 908.559 194.349 C 904.266 188.995, 903.359 187.272, 904.262 186.185 C 905.146 185.120, 905.019 184.590, 903.703 183.854 C 901.548 182.648, 901.495 181.179, 903.612 181.361 C 904.498 181.437, 905.725 180.725, 906.339 179.778 C 908.053 177.133, 905.922 175.519, 902.338 176.747 C 900.097 177.514, 899.540 178.274, 899.688 180.359 C 899.792 181.812, 899.683 183, 899.447 183 C 899.211 183, 897.661 181.581, 896.003 179.846 L 892.989 176.692 896.459 174.334 C 898.689 172.819, 899.724 171.445, 899.357 170.488 C 899.043 169.670, 898.412 169, 897.955 169 C 897.498 169, 897.208 167.844, 897.312 166.432 C 897.469 164.284, 896.865 163.641, 893.631 162.509 C 888.735 160.794, 887 161.465, 887 165.072 C 887 168.391, 889.506 170.157, 893.088 169.362 C 894.458 169.058, 895.056 169.188, 894.472 169.663 C 893.907 170.123, 892.999 171.542, 892.453 172.816 C 891.497 175.050, 891.128 174.822, 881.955 166.316 C 876.726 161.467, 870.086 155.396, 867.199 152.825 C 863.749 149.751, 862.354 147.899, 863.129 147.420 C 863.892 146.949, 864.042 147.122, 863.554 147.912 C 863.086 148.670, 863.312 149.029, 864.150 148.857 C 864.892 148.705, 866.465 149.115, 867.645 149.769 C 869.376 150.729, 870.028 150.671, 871.027 149.468 C 872.119 148.152, 872.399 148.163, 873.421 149.561 C 874.590 151.160, 879.412 150.761, 880.517 148.973 C 881.530 147.333, 879.040 143, 877.084 143 C 874.812 143, 873.491 144.567, 874.984 145.490 C 875.543 145.835, 876 146.574, 876 147.132 C 876 147.689, 874.814 147.212, 873.365 146.073 C 870.742 144.009, 868.433 143.274, 869.378 144.803 C 869.651 145.244, 867.862 145.537, 865.402 145.454 C 862.943 145.371, 860.698 145.680, 860.413 146.141 C 860.129 146.601, 858.814 146.269, 857.493 145.403 C 855.490 144.091, 855.281 143.523, 856.238 141.990 C 857.215 140.427, 856.759 139.524, 853.201 135.966 C 849.058 131.823, 846 131.187, 846 134.469 C 846 136.670, 845.574 136.501, 838.028 131.308 C 833.359 128.095, 831.389 126.149, 831.779 125.134 C 832.200 124.036, 831.880 123.832, 830.543 124.345 C 828.406 125.165, 820 120.595, 820 118.613 C 820 117.896, 820.900 116.495, 822 115.500 C 824.377 113.349, 824.569 112, 822.500 112 C 821.675 112, 821 111.325, 821 110.500 C 821 109.675, 820.498 109, 819.883 109 C 819.245 109, 819 109.891, 819.311 111.081 C 819.747 112.750, 819.135 113.464, 816.221 114.681 C 812.671 116.164, 812.408 116.112, 804.786 112.396 L 796.984 108.592 801.088 104.411 C 806.067 99.337, 806.105 96.422, 801.189 96.650 C 797.600 96.817, 791 101.287, 791 103.551 C 791 105.484, 790.311 105.404, 782.869 102.603 C 767.517 96.826, 750.527 91.741, 741 90.073 C 738.525 89.639, 735.825 89.008, 735 88.670 C 734.175 88.332, 729.675 87.537, 725 86.903 C 715.462 85.610, 715.300 85.592, 698 83.953 C 686.393 82.853, 683.099 82.734, 671 82.979 C 668.525 83.029, 664.475 82.804, 662 82.479 C 659.525 82.153, 657.050 82.313, 656.500 82.834 M 781.591 82.853 C 781.265 83.381, 780.098 83.577, 778.999 83.289 C 777.633 82.932, 777 83.259, 777 84.322 C 777 85.399, 778.387 86.085, 781.512 86.554 C 783.994 86.926, 786.271 87.629, 786.571 88.115 C 787.466 89.562, 789 89.121, 789 87.417 C 789 86.546, 788.441 86.020, 787.758 86.247 C 787.075 86.475, 786.062 85.761, 785.508 84.660 C 784.341 82.342, 782.447 81.468, 781.591 82.853 M 843.918 83.889 C 841.655 85.744, 841.607 85.980, 843.172 87.572 C 845.032 89.464, 847.712 88.914, 848.659 86.445 C 848.997 85.565, 848.613 84.184, 847.805 83.376 C 846.513 82.084, 846.044 82.146, 843.918 83.889 M 452.200 84.200 C 449.395 87.005, 451.508 92, 455.500 92 C 459.711 92, 461.449 87.592, 458.429 84.571 C 456.557 82.700, 453.861 82.539, 452.200 84.200 M 831.543 88.345 C 830.493 89.113, 829.946 90.575, 830.155 92.056 C 830.462 94.234, 830.991 94.501, 835 94.507 C 840.982 94.516, 842 94.136, 842 91.893 C 842 90.852, 841.438 89.948, 840.750 89.885 C 838.053 89.636, 837.427 89.449, 835.388 88.284 C 833.726 87.334, 832.907 87.347, 831.543 88.345 M 574.631 93.855 C 572.485 96.227, 573.513 99, 576.540 99 C 579.292 99, 580.764 95.625, 578.960 93.452 C 577.383 91.552, 576.654 91.620, 574.631 93.855 M 520.364 97.494 C 519.493 99.764, 522.040 102.214, 524 100.992 C 525.139 100.282, 525.242 99.643, 524.429 98.338 C 522.919 95.916, 521.113 95.542, 520.364 97.494 M 877.355 97.517 C 876.560 99.589, 877.749 102.249, 879.251 101.755 C 879.938 101.529, 880.636 100.423, 880.803 99.299 C 881.165 96.858, 878.197 95.324, 877.355 97.517 M 533.500 102 C 532.512 103.598, 533.761 104.750, 536.482 104.750 C 539.452 104.750, 539.631 104.200, 537.250 102.392 C 535.123 100.777, 534.308 100.692, 533.500 102 M 803.099 105.250 C 802.113 107.904, 802.778 110.238, 804.373 109.715 C 805.857 109.229, 806.467 103, 805.031 103 C 804.429 103, 803.559 104.013, 803.099 105.250 M 476.394 105.417 C 475.566 107.574, 476.717 110.261, 478.251 109.750 C 478.938 109.521, 479.500 108.283, 479.500 107 C 479.500 104.259, 477.273 103.124, 476.394 105.417 M 814.362 105.500 C 814.045 106.325, 812.799 107, 811.593 107 C 808.112 107, 806.704 109.015, 808.669 111.186 C 810.826 113.570, 814.268 113.612, 813.801 111.250 C 813.604 110.253, 814.322 109.059, 815.469 108.475 C 817.994 107.189, 818.759 104, 816.542 104 C 815.659 104, 814.678 104.675, 814.362 105.500 M 404.476 108.394 C 402.467 109.863, 403.014 112.684, 405.490 113.635 C 407.272 114.318, 410 112.369, 410 110.413 C 410 108.159, 406.531 106.891, 404.476 108.394 M 505.700 108.341 C 505.417 109.078, 505.575 110.312, 506.051 111.082 C 507.218 112.970, 509.508 110.766, 508.664 108.567 C 507.927 106.647, 506.394 106.530, 505.700 108.341 M 851.533 112.947 C 851.175 113.526, 851.199 114.513, 851.587 115.141 C 851.975 115.768, 852.339 117.905, 852.396 119.891 C 852.479 122.767, 852.931 123.561, 854.623 123.803 C 857.523 124.217, 858.522 121.234, 856.305 118.784 C 855.346 117.725, 854.548 115.917, 854.531 114.767 C 854.497 112.463, 852.559 111.287, 851.533 112.947 M 502.027 115.467 C 500.645 117.133, 501.454 119, 503.559 119 C 505.120 119, 505.562 115.466, 504.113 114.570 C 503.626 114.269, 502.687 114.672, 502.027 115.467 M 878.709 115.624 C 877.432 116.901, 877.966 120.773, 879.500 121.362 C 882.172 122.387, 884.128 120.915, 883.804 118.122 C 883.505 115.547, 880.339 113.995, 878.709 115.624 M 830 117.941 C 830 118.459, 830.430 119.148, 830.956 119.473 C 831.482 119.798, 831.692 120.640, 831.421 121.344 C 831.151 122.048, 832.076 123.238, 833.477 123.988 C 835.747 125.203, 836.175 125.142, 837.426 123.432 C 838.469 122.006, 838.530 121.323, 837.665 120.775 C 837.018 120.365, 835.944 120.781, 835.250 121.710 C 834.563 122.630, 833.944 123.071, 833.875 122.691 C 833.806 122.311, 833.638 121.550, 833.500 121 C 833.362 120.450, 833.194 119.325, 833.125 118.500 C 832.991 116.896, 830 116.361, 830 117.941 M 916.667 120.667 C 915.443 121.890, 915.981 125.055, 917.513 125.643 C 919.936 126.573, 922.152 124.152, 920.944 121.895 C 919.927 119.996, 917.915 119.418, 916.667 120.667 M 844.370 124.250 C 844.701 125.487, 844.979 127.287, 844.986 128.250 C 845.003 130.358, 847.835 130.594, 848.618 128.553 C 849.193 127.053, 846.159 122.087, 844.633 122.031 C 844.157 122.014, 844.038 123.013, 844.370 124.250 M 853.250 126.360 C 850.912 127.518, 850.304 129.452, 851.956 130.473 C 852.482 130.798, 852.659 131.725, 852.349 132.532 C 852.040 133.339, 852.251 134, 852.820 134 C 853.388 134, 854.064 133.213, 854.321 132.250 C 854.713 130.782, 854.906 130.870, 855.523 132.798 C 855.968 134.188, 856.899 134.969, 857.879 134.773 C 859.123 134.525, 859.418 133.526, 859.146 130.475 C 858.951 128.289, 858.276 126.169, 857.646 125.765 C 856.293 124.898, 856.167 124.915, 853.250 126.360 M 862.217 130.437 C 861.849 131.022, 861.447 133.009, 861.324 134.854 C 861.129 137.777, 861.360 138.139, 863.129 137.676 C 864.582 137.297, 865.006 137.542, 864.623 138.541 C 863.995 140.177, 865.581 141.486, 866.463 140.060 C 866.794 139.525, 867.725 139.341, 868.532 139.651 C 869.339 139.960, 870 139.716, 870 139.107 C 870 138.498, 869.352 138, 868.559 138 C 865.659 138, 865.937 135.918, 868.979 134.857 C 871.351 134.031, 872.035 133.250, 871.804 131.633 C 871.549 129.845, 870.804 129.490, 867.193 129.437 C 864.825 129.403, 862.585 129.853, 862.217 130.437 M 939.364 134.493 C 939.018 135.396, 939.214 136.614, 939.800 137.200 C 941.324 138.724, 944.210 137.331, 943.812 135.265 C 943.369 132.963, 940.165 132.407, 939.364 134.493 M 899.998 138.502 C 898.883 139.846, 898.940 140.368, 900.355 141.783 C 902.394 143.823, 905.500 142.379, 905.500 139.391 C 905.500 136.958, 901.779 136.356, 899.998 138.502 M 655.917 138.389 C 655.688 138.603, 652.676 139.033, 649.225 139.345 C 645.774 139.657, 642.399 140.256, 641.725 140.675 C 641.051 141.094, 638.925 141.487, 637 141.547 C 631.039 141.734, 619.018 143.941, 616.191 145.367 C 614.711 146.114, 611.651 146.960, 609.392 147.248 C 607.132 147.536, 603.757 148.454, 601.892 149.289 C 600.026 150.123, 593.249 153.043, 586.832 155.777 C 576.158 160.325, 571.185 162.906, 551.997 173.854 C 546.938 176.740, 537.983 182.445, 535.176 184.569 C 534.998 184.704, 535.538 186.139, 536.375 187.758 C 537.720 190.359, 537.725 190.948, 536.421 192.809 C 534.468 195.598, 531.789 194.584, 532.195 191.209 C 532.363 189.815, 532.037 188.518, 531.471 188.328 C 530.333 187.944, 516 200.643, 516 202.036 C 516 202.516, 514.801 204.108, 513.336 205.573 C 510.009 208.900, 510.985 209.597, 520 210.336 C 523.575 210.629, 527.242 211.154, 528.149 211.503 C 529.056 211.851, 530.098 211.651, 530.464 211.057 C 530.920 210.321, 531.816 210.458, 533.288 211.489 C 535.710 213.186, 541 213.536, 541 212 C 541 211.450, 541.450 211, 542 211 C 542.550 211, 543 211.725, 543 212.611 C 543 213.904, 543.676 214.096, 546.422 213.581 C 548.524 213.186, 550.109 213.367, 550.531 214.050 C 550.912 214.666, 552.285 214.894, 553.609 214.562 C 554.924 214.232, 556 214.348, 556 214.820 C 556 215.292, 559.938 216.221, 564.750 216.886 C 569.563 217.550, 576.425 218.504, 580 219.006 C 585.871 219.831, 591.930 220.504, 602 221.450 C 603.925 221.630, 607.638 222.104, 610.250 222.503 C 612.862 222.901, 615 222.903, 615 222.508 C 615 222.112, 613.987 220.570, 612.750 219.080 C 611.513 217.591, 609.713 215.276, 608.751 213.936 C 607.789 212.596, 605.202 209.056, 603.001 206.069 C 600.801 203.083, 599 200.286, 599 199.855 C 599 199.423, 598.070 198.572, 596.932 197.964 C 595.276 197.077, 592.642 197.550, 583.682 200.341 C 562.992 206.788, 559.026 207.030, 557.691 201.927 C 556.898 198.894, 560.464 195.637, 570 190.686 C 589.072 180.783, 598.639 179.541, 607.539 185.815 C 610.025 187.567, 612.720 189, 613.529 189 C 615.232 189, 615.522 190.659, 613.913 191.196 C 612.487 191.671, 621.619 202.744, 624.082 203.526 C 625.127 203.858, 626.416 203.861, 626.947 203.533 C 627.478 203.205, 628.627 204.028, 629.502 205.362 C 632.320 209.664, 629.632 215.892, 622.780 220.931 L 618.784 223.869 622.142 224.437 C 631.046 225.943, 646.655 228, 649.176 228 C 650.729 228, 652 227.550, 652 227 C 652 226.450, 652.675 226, 653.500 226 C 654.325 226, 655 226.389, 655 226.863 C 655 227.338, 657.587 228.220, 660.750 228.822 C 669.784 230.544, 671.976 230.770, 671.453 229.925 C 671.186 229.492, 671.425 228.856, 671.984 228.510 C 672.543 228.165, 673 228.563, 673 229.396 C 673 230.375, 674.324 231.114, 676.750 231.490 C 678.813 231.809, 683.762 232.664, 687.749 233.389 C 693.817 234.493, 695.181 234.487, 696.121 233.354 C 697.608 231.563, 699 231.633, 699 233.500 C 699 234.325, 699.378 235, 699.841 235 C 700.304 235, 704.365 235.496, 708.866 236.101 C 715.236 236.959, 717.382 236.928, 718.544 235.963 C 719.745 234.967, 720.377 235.021, 721.769 236.239 C 722.721 237.073, 725.750 237.994, 728.500 238.287 C 731.250 238.580, 742.275 240.006, 753 241.457 C 785.205 245.812, 786.287 245.937, 792.167 245.969 C 795.808 245.989, 798.001 245.553, 798.302 244.750 C 798.645 243.834, 799.135 243.940, 800.135 245.149 C 802.311 247.778, 805.561 248.296, 807.529 246.328 C 809.019 244.838, 809.186 243.307, 808.693 235.687 C 808.277 229.276, 807.633 226.252, 806.391 224.880 C 804.709 223.021, 804.583 223.065, 801.346 226.598 C 797.463 230.838, 795.683 230.743, 788.532 225.917 C 782.736 222.006, 775.969 221.226, 766.688 223.403 C 751.125 227.052, 741.411 223.792, 745.400 216.259 C 747.339 212.598, 751.614 209.365, 763.013 202.939 C 771.974 197.887, 772.808 197.618, 778.829 197.841 C 782.605 197.980, 786.175 198.724, 787.624 199.673 C 788.965 200.552, 790.295 201.038, 790.579 200.754 C 791.111 200.222, 793.137 201.755, 800.482 208.250 C 802.815 210.313, 805.064 212, 805.480 212 C 805.896 212, 806.040 206.262, 805.800 199.250 C 805.038 176.994, 801.052 171.451, 777.591 160.025 C 760.905 151.898, 746.924 146.865, 746.268 148.750 C 746.029 149.438, 745.148 150, 744.310 150 C 743.394 150, 743.007 149.425, 743.339 148.560 C 743.752 147.483, 742.452 146.810, 738.196 145.897 C 735.063 145.225, 731.655 144.251, 730.623 143.734 C 729.375 143.109, 728.517 143.164, 728.063 143.898 C 727.591 144.662, 726.107 144.387, 723.253 143.008 C 720.935 141.888, 718.365 141.306, 717.390 141.681 C 716.065 142.189, 715.802 141.957, 716.283 140.706 C 716.629 139.803, 716.529 138.827, 716.061 138.538 C 715.593 138.248, 714.949 138.691, 714.630 139.522 C 714.190 140.669, 713.119 140.883, 710.172 140.412 C 707.146 139.928, 706.159 140.144, 705.678 141.396 C 704.810 143.659, 703 143.392, 703 141 C 703 139.250, 702.333 139, 697.671 139 C 693.018 139, 692.351 139.249, 692.421 140.959 C 692.464 142.037, 692.050 142.918, 691.500 142.918 C 690.950 142.918, 690.533 142.064, 690.573 141.019 C 690.633 139.447, 689.988 139.146, 686.823 139.273 C 684.451 139.367, 683 139.914, 683 140.712 C 683 141.421, 682.325 142, 681.500 142 C 680.675 142, 680 141.381, 680 140.625 C 680 139.254, 675.880 138, 671.375 138 C 669.791 138, 668.990 138.583, 668.970 139.750 C 668.941 141.417, 668.891 141.417, 667.920 139.750 C 667.153 138.433, 665.594 138, 661.617 138 C 658.711 138, 656.146 138.175, 655.917 138.389 M 884.250 145.706 C 881.319 146.270, 881.401 147.741, 884.500 150.179 C 885.883 151.267, 887 153.182, 887 154.466 C 887 157.422, 889.854 158.584, 891.928 156.472 C 893.359 155.015, 893.321 154.720, 891.500 153.185 C 890.265 152.144, 889.629 150.588, 889.837 149.113 C 890.130 147.044, 888.513 144.786, 887 145.151 C 886.725 145.218, 885.487 145.467, 884.250 145.706 M 366.207 147.250 C 364.725 149.036, 366.344 151.466, 368.473 150.649 C 370.269 149.959, 370.218 146.905, 368.400 146.300 C 367.795 146.098, 366.808 146.526, 366.207 147.250 M 458 150 C 454.497 153.503, 455.517 159.182, 460.073 161.538 C 463.661 163.393, 467.488 161.891, 469.605 157.796 C 473.053 151.128, 463.374 144.626, 458 150 M 664.604 149.590 C 664.268 150.465, 664.260 151.612, 664.586 152.139 C 665.351 153.377, 668 151.235, 668 149.378 C 668 147.475, 665.352 147.640, 664.604 149.590 M 384.223 153.557 C 379.929 156.564, 382.069 163, 387.363 163 C 391.546 163, 393.460 156.632, 390.171 153.655 C 387.905 151.604, 387.030 151.590, 384.223 153.557 M 924.668 154.750 C 924.235 155.438, 924.203 156, 924.596 156 C 924.989 156, 924.564 156.824, 923.653 157.831 C 921.746 159.939, 922.381 161, 925.550 161 C 926.924 161, 927.965 161.759, 928.288 162.995 C 929.057 165.934, 932.008 166.708, 933.692 164.412 C 934.464 163.361, 934.891 161.713, 934.642 160.750 C 934.392 159.787, 934.595 159, 935.094 159 C 935.592 159, 936 158.550, 936 158 C 936 157.450, 935.325 157, 934.500 157 C 933.675 157, 933 157.450, 933 158 C 933 158.550, 932.100 159, 931 159 C 929.900 159, 929 158.550, 929 158 C 929 157.450, 928.358 157, 927.573 157 C 926.789 157, 925.991 156.213, 925.800 155.250 C 925.546 153.970, 925.242 153.836, 924.668 154.750 M 393.667 160.667 C 392.690 161.644, 392.853 165, 393.878 165 C 394.360 165, 395.299 164.345, 395.964 163.544 C 397.740 161.403, 395.605 158.729, 393.667 160.667 M 741.446 161.087 C 740.573 162.499, 742.501 164.427, 743.913 163.554 C 745.499 162.574, 745.243 160, 743.559 160 C 742.766 160, 741.816 160.489, 741.446 161.087 M 914.750 162.165 C 912.443 163.415, 911 164.928, 911 166.098 C 911 168.149, 912.613 168.530, 914.974 167.037 C 915.921 166.438, 916.684 166.489, 917.112 167.181 C 918.032 168.670, 920.034 167.252, 919.388 165.569 C 919.100 164.817, 919.344 163.905, 919.932 163.542 C 921.413 162.626, 921.275 159.985, 919.750 160.067 C 919.063 160.104, 916.813 161.048, 914.750 162.165 M 336.643 165.100 C 334.662 167.928, 336.166 171.266, 339.216 170.811 C 342.149 170.373, 343.796 167.486, 342.388 165.250 C 340.757 162.661, 338.394 162.599, 336.643 165.100 M 774.104 163.900 C 771.977 165.269, 773.578 168.199, 776.246 167.820 C 777.721 167.611, 778.500 166.813, 778.500 165.514 C 778.500 163.322, 776.274 162.505, 774.104 163.900 M 902.011 166.487 C 900.566 168.228, 901.344 171, 903.277 171 C 904.015 171, 905.474 170.374, 906.521 169.608 C 908.138 168.426, 908.224 167.975, 907.090 166.608 C 905.423 164.600, 903.612 164.557, 902.011 166.487 M 423.065 167.667 C 420.656 169.355, 420.351 173.217, 422.487 174.989 C 424.504 176.663, 428.717 175.467, 429.501 172.998 C 431.028 168.187, 427.039 164.883, 423.065 167.667 M 391.566 170.209 C 390.516 171.709, 390.346 172.746, 391.037 173.437 C 392.471 174.871, 395.418 172.844, 395.820 170.148 C 396.246 167.281, 393.590 167.320, 391.566 170.209 M 937.930 171.584 C 936.064 173.833, 938.001 176.500, 941.500 176.500 C 944.999 176.500, 946.936 173.833, 945.070 171.584 C 944.347 170.713, 942.740 170, 941.500 170 C 940.260 170, 938.653 170.713, 937.930 171.584 M 781.631 172.702 C 780.145 174.189, 781.171 176, 783.500 176 C 784.875 176, 786 175.566, 786 175.035 C 786 173.778, 782.451 171.882, 781.631 172.702 M 926.642 183.509 C 926.914 184.218, 926.656 185.095, 926.068 185.458 C 924.475 186.442, 924.778 189.978, 926.513 190.643 C 928.830 191.532, 931 189.106, 930.999 185.628 C 930.999 183.022, 930.593 182.477, 928.573 182.360 C 926.969 182.268, 926.315 182.657, 926.642 183.509 M 819.353 199 C 820.550 229.349, 822.230 244.805, 824.750 248.643 C 826.326 251.044, 878 255.980, 878 253.730 C 878 251.654, 871.466 239.121, 867.193 233 C 857.180 218.656, 838.889 197, 836.788 197 C 836.570 197, 836.584 202.415, 836.820 209.034 C 837.298 222.447, 836.362 225, 830.967 225 C 826.208 225, 825.676 223.205, 825.192 205.495 L 824.744 189.129 821.743 186.314 L 818.741 183.500 819.353 199 M 907.767 187.379 C 906.157 188.603, 906.196 188.768, 908.332 189.741 C 909.802 190.411, 911.234 190.448, 912.314 189.844 C 914.402 188.676, 914.556 186.849, 912.500 187.638 C 911.675 187.955, 911 187.716, 911 187.107 C 911 185.660, 909.911 185.752, 907.767 187.379 M 414.011 197.487 C 412.543 199.256, 413.355 202, 415.346 202 C 417.348 202, 419.330 199.302, 418.643 197.513 C 417.902 195.582, 415.602 195.569, 414.011 197.487 M 921.782 201.750 C 920.974 203.551, 921.606 208.353, 922.700 208.725 C 923.519 209.004, 923.848 207.843, 923.737 205.067 C 923.591 201.390, 922.655 199.803, 921.782 201.750 M 635.190 205.750 C 635.376 206.713, 636.190 207.500, 637 207.500 C 637.810 207.500, 638.624 206.713, 638.810 205.750 C 639.046 204.522, 638.506 204, 637 204 C 635.494 204, 634.954 204.522, 635.190 205.750 M 326.589 213.077 C 323.082 217.244, 323.197 221.350, 326.923 225.077 C 331.188 229.341, 335.806 229.124, 339.896 224.465 C 343.406 220.469, 343.632 219.122, 341.490 214.980 C 338.402 209.008, 330.826 208.041, 326.589 213.077 M 596.667 213.667 C 595.224 215.110, 596.042 218, 597.893 218 C 600.179 218, 601.276 215.676, 599.722 214.122 C 598.438 212.838, 597.618 212.716, 596.667 213.667 M 371.571 217.571 C 369.825 219.318, 369.688 219.999, 370.765 221.573 C 373.385 225.399, 380.156 222.028, 377.988 217.977 C 376.716 215.601, 373.731 215.412, 371.571 217.571 M 939.581 219.562 C 937.567 221.576, 937.594 222.325, 939.750 224.261 C 941.689 226.002, 947.038 225.536, 946.945 223.633 C 946.914 223.010, 945.601 221.483, 944.025 220.241 C 941.415 218.181, 941.022 218.121, 939.581 219.562 M 689.655 225.829 C 688.066 227.584, 687.418 230, 688.535 230 C 689.976 230, 694 226.602, 694 225.385 C 694 223.424, 691.611 223.668, 689.655 225.829 M 297.415 231.360 C 297.100 232.182, 296.990 233.900, 297.171 235.177 C 297.429 236.996, 298.127 237.500, 300.391 237.500 C 303.955 237.500, 306.001 234.816, 304.394 232.250 C 302.969 229.974, 298.181 229.364, 297.415 231.360 M 373.096 236.941 C 371.585 237.875, 372.281 241, 374 241 C 375.464 241, 376.466 238.066, 375.374 236.974 C 374.873 236.473, 373.877 236.458, 373.096 236.941 M 858.598 242.841 C 858.056 243.718, 863.235 248, 864.837 248 C 865.342 248, 866.276 247.373, 866.912 246.606 C 868.689 244.465, 865.538 241.642, 862.931 243.037 C 861.601 243.749, 861 243.748, 861 243.035 C 861 241.793, 859.330 241.658, 858.598 242.841 M 364.539 248.581 C 362.538 251.635, 363.147 254, 365.933 254 C 368.667 254, 370.398 250.613, 369 248 C 367.580 245.347, 366.572 245.478, 364.539 248.581 M 359.446 255.087 C 358.573 256.499, 360.501 258.427, 361.913 257.554 C 362.511 257.184, 363 256.234, 363 255.441 C 363 253.757, 360.426 253.501, 359.446 255.087 M 307.529 275.355 C 305.479 276.854, 305.798 279.843, 308.166 281.335 C 309.374 282.095, 310.268 282.022, 311.416 281.070 C 315.049 278.054, 311.325 272.579, 307.529 275.355 M 358.506 280.990 C 357.765 282.190, 366.236 284.049, 367.535 282.971 C 368.231 282.393, 369.088 282.488, 369.824 283.224 C 370.725 284.125, 371 283.892, 371 282.223 C 371 280.219, 370.522 280.053, 364.993 280.131 C 361.688 280.177, 358.770 280.564, 358.506 280.990 M 344.188 296.739 C 344.690 299.345, 348 299.636, 348 297.073 C 348 295.642, 347.358 295, 345.927 295 C 344.496 295, 343.957 295.539, 344.188 296.739 M 967 297.693 C 964.065 298.156, 961.369 302.771, 963.054 304.450 C 963.791 305.184, 964.665 304.763, 965.960 303.049 C 967.566 300.923, 968.029 300.779, 969.456 301.963 C 970.856 303.125, 971.336 303.092, 972.687 301.742 C 973.560 300.869, 974.001 299.445, 973.668 298.578 C 973.075 297.033, 972.054 296.897, 967 297.693 M 359.380 310.452 C 359.074 311.251, 359.085 312.329, 359.406 312.847 C 360.003 313.814, 357.609 315.231, 355.086 315.403 C 352.271 315.596, 352.998 317.750, 356.086 318.367 C 360.836 319.317, 361 319.238, 361 316 C 361 314.350, 361.450 313, 362 313 C 362.550 313, 363 312.100, 363 311 C 363 308.691, 360.217 308.270, 359.380 310.452 M 650 331.486 C 645.325 335.549, 641.439 339.465, 641.365 340.187 C 641.051 343.253, 640.925 343.430, 640.046 342.040 C 639.292 340.848, 637.501 341.689, 630.311 346.609 C 625.465 349.925, 619.475 353.829, 617 355.284 C 609.086 359.938, 609.349 359.623, 611.445 361.939 C 613.274 363.960, 613.268 364, 611.155 364 C 609.906 364, 609 363.369, 609 362.500 C 609 360.482, 608.262 360.671, 603 364.031 C 600.525 365.611, 594.675 369.013, 590 371.589 C 577.892 378.263, 577 378.876, 577 380.523 C 577 381.335, 576.550 382, 576 382 C 575.450 382, 575 381.313, 575 380.474 C 575 379.140, 574.656 379.123, 572.250 380.338 C 570.737 381.102, 566.350 382.740, 562.500 383.977 C 558.650 385.215, 554.920 386.961, 554.211 387.859 C 553.157 389.192, 552.768 389.243, 552.086 388.138 C 551.503 387.196, 551.043 387.122, 550.566 387.893 C 550.190 388.502, 548.531 389, 546.879 389 C 545.227 389, 539.741 389.879, 534.688 390.953 C 529.635 392.028, 522.800 393.265, 519.500 393.703 L 513.500 394.500 513.249 436.936 C 513.001 478.958, 512.978 479.395, 510.825 481.686 C 508.370 484.299, 504.828 484.703, 503.059 482.571 C 502.207 481.545, 501.900 473.884, 501.968 455.321 C 502.021 441.120, 501.755 421.512, 501.379 411.750 L 500.695 394 498.348 394 L 496 394 496 409.977 C 496 425.672, 495.958 425.981, 493.635 427.504 C 490.595 429.495, 486.272 428.042, 485.548 424.785 C 485.269 423.528, 484.919 416.349, 484.770 408.830 C 484.622 401.312, 484.218 394.880, 483.874 394.537 C 483.529 394.194, 477.792 393.639, 471.124 393.304 L 459 392.695 459 395.100 C 459 399.043, 463.548 416.199, 466.967 425.152 C 475.422 447.293, 490.709 474.256, 501.182 485.500 C 502.207 486.600, 504.420 489.300, 506.100 491.500 C 507.780 493.700, 512.306 498.810, 516.159 502.856 C 523.046 510.089, 523.188 510.176, 524.668 508.063 C 526.077 506.053, 528.469 505.787, 534.939 506.923 C 535.180 506.965, 534.416 507.895, 533.242 508.989 C 532.068 510.083, 530.480 510.738, 529.714 510.444 C 528.947 510.150, 527.787 510.552, 527.134 511.338 C 526.169 512.501, 526.919 513.641, 531.161 517.455 C 536.794 522.519, 541.796 525.537, 542.836 524.498 C 543.193 524.140, 543.939 521.970, 544.493 519.674 C 545.920 513.759, 547.470 514.925, 547.670 522.065 C 547.763 525.406, 548.078 528.760, 548.369 529.518 C 549.017 531.208, 564.964 542, 566.813 542 C 567.544 542, 568.869 542.726, 569.757 543.614 C 571.243 545.100, 571.438 545.047, 572.212 542.955 C 573.031 540.742, 575.739 538.096, 577.250 538.032 C 578.516 537.978, 578.083 540.060, 576.500 541.643 C 574.710 543.432, 574.683 544, 576.282 546.099 C 577.849 548.156, 591.756 555.097, 600.969 558.421 C 609.381 561.455, 609 561.404, 609 559.500 C 609 558.675, 609.450 558, 610 558 C 610.550 558, 611 558.685, 611 559.521 C 611 560.358, 612.140 561.562, 613.533 562.197 C 615.730 563.198, 616.268 563.063, 617.590 561.176 C 619.322 558.702, 621.249 558.390, 622.854 560.324 C 623.656 561.290, 623.635 561.965, 622.776 562.824 C 621.316 564.284, 622.544 565.622, 626.160 566.515 C 628.233 567.027, 628.927 566.766, 629.304 565.336 C 629.733 563.709, 629.870 563.756, 630.511 565.750 C 631.291 568.181, 635.974 569.029, 636.032 566.750 C 636.051 565.988, 636.584 566.185, 637.396 567.255 C 638.958 569.313, 648.023 571.324, 649.450 569.929 C 650.875 568.536, 653.139 568.808, 654.393 570.523 C 655.987 572.702, 662.943 573.685, 664.119 571.897 C 664.885 570.733, 665.262 570.792, 666.379 572.250 C 668.294 574.748, 673.615 574.579, 674.290 572 C 674.577 570.900, 675.572 570, 676.500 570 C 677.428 570, 678.423 570.900, 678.710 572 C 679.355 574.466, 681.549 574.613, 682.464 572.250 C 683.111 570.583, 683.204 570.583, 684.432 572.250 C 686.011 574.394, 690.310 574.536, 692 572.500 C 693.410 570.801, 696.575 570.504, 697.490 571.984 C 698.083 572.943, 714.609 572.360, 716.291 571.320 C 716.726 571.052, 716.790 569.913, 716.434 568.791 C 716.045 567.565, 716.309 566.427, 717.095 565.941 C 719.084 564.712, 720.077 565.844, 719.395 568.561 C 718.970 570.255, 719.198 570.992, 720.142 570.974 C 721.281 570.952, 731.454 568.491, 744.500 565.083 C 750.771 563.445, 763.182 558.618, 775.108 553.181 L 779.716 551.080 780.384 544.556 C 780.752 540.968, 780.746 531.923, 780.371 524.457 C 779.807 513.209, 779.463 511.108, 778.369 512.202 C 777.592 512.979, 776.777 517.223, 776.388 522.512 C 775.667 532.327, 774.942 534, 771.413 534 C 768.269 534, 767 531.268, 767 524.498 L 767 518.864 764.160 520.886 C 762.598 521.998, 757.625 524.752, 753.109 527.006 C 748.593 529.259, 744.642 531.768, 744.330 532.581 C 744.001 533.440, 743.042 533.831, 742.043 533.514 C 741.097 533.214, 737.367 534.081, 733.753 535.441 C 725.772 538.445, 715.181 540.975, 710.188 541.070 C 706.724 541.136, 701.042 542.777, 703.750 542.930 C 705.179 543.010, 705.488 545, 704.071 545 C 703.561 545, 702.356 544.212, 701.395 543.250 C 700.132 541.986, 697.264 541.320, 691.073 540.853 C 664.035 538.812, 642.393 530.288, 619 512.465 C 612.125 507.227, 603.350 500.857, 599.500 498.310 C 575.517 482.441, 560.825 472.652, 556.175 469.444 C 546.283 462.619, 531.734 454.866, 530.721 455.879 C 530.191 456.409, 529.457 459.756, 529.088 463.317 C 528.132 472.555, 524.704 475.645, 520.529 471.032 C 518.887 469.218, 518.833 468.018, 519.839 455.704 C 521.264 438.261, 521.760 437.121, 526.527 440.326 C 528.963 441.963, 537.524 445.194, 545.500 447.486 C 548.800 448.434, 553.750 450.097, 556.500 451.181 C 565.971 454.916, 576.522 457.944, 585.381 459.470 C 598.437 461.719, 598.959 461.636, 603.996 456.504 C 608.869 451.539, 611.729 451.763, 608.123 456.827 C 606.955 458.467, 606 460.302, 606 460.904 C 606 462.222, 611.009 462.262, 620.567 461.020 C 624.454 460.514, 634.804 459.393, 643.567 458.529 C 663.871 456.525, 665.989 456.134, 665.363 454.503 C 664.503 452.263, 666.842 451.837, 668.011 454.020 C 668.771 455.440, 669.720 455.906, 671.016 455.495 C 672.899 454.897, 676.570 454.195, 689 452.054 C 692.575 451.439, 700.225 449.400, 706 447.525 C 711.775 445.649, 721.450 442.722, 727.500 441.020 C 733.550 439.317, 739.658 437.087, 741.074 436.062 C 742.490 435.038, 745.190 434.188, 747.074 434.174 C 750.371 434.148, 762.888 430.206, 790.500 420.497 C 803.116 416.061, 803.803 415.935, 813.751 416.213 C 819.918 416.386, 824.170 416.102, 824.422 415.500 C 824.653 414.950, 824.878 415.288, 824.921 416.250 C 825.001 418.012, 826.473 418.644, 827.253 417.250 C 827.483 416.837, 827.530 417.077, 827.355 417.782 C 827.181 418.487, 828.070 419.456, 829.331 419.936 C 830.592 420.415, 833.045 422.426, 834.781 424.404 C 838.137 428.226, 840.420 428.953, 841.362 426.500 C 842.088 424.606, 845.608 424.537, 846.324 426.403 C 846.620 427.174, 846.267 428.620, 845.540 429.615 C 844.468 431.080, 843.934 431.190, 842.735 430.195 C 840.553 428.384, 837.791 429.766, 838.586 432.271 C 838.941 433.390, 839.208 435.987, 839.180 438.042 C 839.134 441.339, 839.372 441.715, 841.198 441.238 C 842.680 440.851, 843.129 441.095, 842.780 442.098 C 842.512 442.869, 841.552 443.368, 840.646 443.206 C 839.387 442.981, 839 443.700, 839 446.269 C 839 450.901, 834.944 458.787, 830.342 463.102 C 828.229 465.084, 823.575 468.609, 820 470.937 C 814.244 474.684, 806.528 483.087, 802.443 490.056 C 801.861 491.049, 799.514 493.354, 797.227 495.180 C 794.547 497.319, 792.693 499.811, 792.013 502.186 C 791.386 504.374, 791.068 513.840, 791.229 525.472 L 791.500 545.071 796.500 541.822 C 799.250 540.036, 802.944 537.882, 804.708 537.037 C 811.320 533.869, 843 506.023, 843 503.379 C 843 502.620, 843.498 502, 844.107 502 C 845.526 502, 854.314 492.663, 856.121 489.235 C 856.879 487.795, 859.210 484.730, 861.301 482.422 C 865.880 477.367, 872.182 465.637, 871.405 463.613 C 871.041 462.665, 871.590 462.044, 872.982 461.830 C 876.136 461.343, 884.831 444.189, 891.488 425.322 C 894.589 416.532, 895.039 412, 892.810 412 C 890.759 412, 892.651 408.555, 895.005 408.003 C 896.580 407.634, 897.618 406.603, 897.820 405.209 C 898.184 402.687, 897.299 402.530, 891.866 404.158 C 889.197 404.958, 888 405.887, 888 407.158 C 888 408.171, 887.550 409, 887 409 C 886.450 409, 886 408.144, 886 407.098 C 886 405.284, 885.781 405.265, 881.250 406.704 C 874.363 408.891, 867.626 409.401, 848.356 409.192 C 833.936 409.035, 831.120 409.244, 830.637 410.503 C 830.321 411.326, 829.101 412, 827.924 412 C 826.501 412, 825.966 411.531, 826.324 410.599 C 826.655 409.736, 826.023 408.972, 824.681 408.612 C 820.868 407.590, 815.184 407.953, 814.698 409.250 C 814.354 410.168, 813.867 410.064, 812.865 408.859 C 811.776 407.551, 808.870 407.109, 798.500 406.679 C 787.210 406.210, 765.526 403.061, 763.050 401.531 C 762.588 401.245, 761.952 401.684, 761.636 402.506 C 760.795 404.698, 758 404.337, 758 402.036 C 758 400.501, 756.635 399.648, 751.750 398.130 C 747.986 396.960, 745.122 396.548, 744.550 397.094 C 743.313 398.274, 740 398.266, 740 397.083 C 740 396.579, 740.563 395.966, 741.250 395.721 C 741.938 395.475, 738.225 393.205, 733 390.675 C 727.775 388.145, 722.076 385.139, 720.336 383.994 C 718.318 382.667, 716.938 382.291, 716.527 382.956 C 715.460 384.683, 713.852 384.132, 714.187 382.154 C 714.509 380.253, 712.427 377, 710.888 377 C 709.723 377, 697.464 369.038, 692.612 365.131 C 690.474 363.409, 688.224 361.990, 687.612 361.978 C 687.001 361.966, 685.825 360.655, 685 359.063 C 681.610 352.523, 671.708 339.854, 670.948 341.084 C 670.390 341.986, 669.324 341.477, 667.089 339.242 C 663.858 336.012, 663.292 334.108, 665.042 332.358 C 665.766 331.634, 665.612 330.923, 664.542 330.035 C 663.280 328.988, 662.986 329.005, 662.924 330.128 C 662.882 330.882, 662.289 329.952, 661.605 328.060 C 660.921 326.169, 659.943 324.503, 659.431 324.359 C 658.919 324.215, 654.675 327.422, 650 331.486 M 368.522 361.964 C 368.307 362.312, 368.518 363.220, 368.990 363.983 C 369.611 364.989, 370.213 365.079, 371.174 364.311 C 371.903 363.728, 373.512 363.417, 374.750 363.619 C 375.988 363.822, 377 363.514, 377 362.935 C 377 362.356, 376.550 362.160, 376 362.500 C 375.450 362.840, 375 362.716, 375 362.226 C 375 361.221, 369.128 360.984, 368.522 361.964 M 606.926 366.250 C 606.885 366.387, 606.657 367.551, 606.419 368.836 C 605.874 371.780, 607.981 371.283, 609.122 368.199 C 609.727 366.563, 609.560 366, 608.468 366 C 607.660 366, 606.967 366.113, 606.926 366.250 M 385.032 377.857 C 385.014 378.634, 384.373 378.973, 383.532 378.651 C 381.622 377.918, 380.444 379.844, 381.908 381.308 C 383.265 382.665, 389.740 383.230, 390.466 382.055 C 390.748 381.599, 390.308 380.671, 389.489 379.991 C 388.670 379.311, 388 379.121, 388 379.569 C 388 380.016, 387.339 379.509, 386.532 378.441 C 385.567 377.166, 385.053 376.966, 385.032 377.857 M 965.032 382.619 C 965.049 383.104, 965.724 384.374, 966.532 385.441 C 968.766 388.395, 968.463 391.282, 966 390.500 C 963.678 389.763, 963.247 391.497, 965.535 392.375 C 966.915 392.905, 966.915 393.264, 965.535 395.932 C 963.649 399.579, 963.592 401, 965.331 401 C 966.844 401, 969.022 397.254, 968.819 395 C 968.446 390.833, 969.202 387.798, 971.083 385.917 C 972.229 384.771, 972.960 383.627, 972.707 383.374 C 971.769 382.436, 965.001 381.771, 965.032 382.619 M 977.667 382.667 C 975.542 384.791, 977.874 388.273, 980.750 387.269 C 982.802 386.554, 982.298 382, 980.167 382 C 979.158 382, 978.033 382.300, 977.667 382.667 M 377.364 390.493 C 377.018 391.396, 377.214 392.614, 377.800 393.200 C 379.324 394.724, 382.210 393.331, 381.812 391.265 C 381.369 388.963, 378.165 388.407, 377.364 390.493 M 530.435 396.309 C 530.111 397.153, 530.390 398.860, 531.055 400.102 C 532.161 402.168, 532.368 402.218, 533.492 400.680 C 534.168 399.756, 535.496 399, 536.444 399 C 537.391 399, 537.970 398.438, 537.730 397.750 C 537.489 397.063, 536.518 396.640, 535.572 396.811 C 534.626 396.982, 533.215 396.594, 532.438 395.948 C 531.331 395.030, 530.896 395.109, 530.435 396.309 M 468.667 396.667 C 466.341 398.992, 470.773 405, 474.814 405 C 477.443 405, 477.663 403.205, 475.250 401.441 C 474.288 400.737, 473.444 399.675, 473.375 399.081 C 473.306 398.486, 473.194 397.550, 473.125 397 C 472.985 395.880, 469.699 395.634, 468.667 396.667 M 966.971 414.041 C 964.937 416.862, 965.132 418.500, 967.500 418.500 C 969.025 418.500, 969.574 417.729, 969.813 415.250 C 970.172 411.534, 969.105 411.080, 966.971 414.041 M 667.250 418.141 C 665.741 419.661, 665.591 423, 667.031 423 C 668.325 423, 669.275 420.630, 668.835 418.500 C 668.566 417.201, 668.254 417.131, 667.250 418.141 M 739.336 428.567 C 738.502 430.739, 740.618 432.782, 742.133 431.267 C 743.413 429.987, 742.620 427, 741 427 C 740.415 427, 739.667 427.705, 739.336 428.567 M 559.688 439.646 C 558.314 441.020, 559.026 443.142, 560.750 442.810 C 561.712 442.624, 562.500 441.841, 562.500 441.070 C 562.500 439.491, 560.736 438.598, 559.688 439.646 M 879.207 441.041 C 877.798 443.296, 878.363 445, 880.519 445 C 881.455 445, 881.850 444.006, 881.710 442.002 C 881.463 438.472, 880.937 438.270, 879.207 441.041 M 961.380 440.452 C 960.611 442.455, 961.752 444, 964 444 C 966.301 444, 967.209 442.708, 966.396 440.590 C 965.633 438.600, 962.128 438.504, 961.380 440.452 M 636.373 441.206 C 635.696 442.302, 637.711 443.960, 639.750 443.985 C 640.438 443.993, 641 443.377, 641 442.617 C 641 440.930, 637.250 439.787, 636.373 441.206 M 969.431 442.112 C 968.451 443.697, 971.164 445.108, 972.716 443.820 C 973.422 443.234, 974 442.360, 974 441.878 C 974 440.606, 970.242 440.799, 969.431 442.112 M 949.153 462.715 C 947.962 464.940, 948.532 468, 950.138 468 C 951.632 468, 952.141 465.555, 951.185 462.972 L 950.298 460.574 949.153 462.715 M 952.667 470.667 C 951.149 472.185, 952.147 474, 954.500 474 C 957.230 474, 957.664 473.064, 955.800 471.200 C 954.441 469.841, 953.631 469.703, 952.667 470.667 M 942 477.833 C 942 480.374, 943.066 481.190, 944.658 479.869 C 946.656 478.210, 946.280 476, 944 476 C 942.727 476, 942 476.667, 942 477.833 M 593 477.413 C 593 477.959, 598.451 481.607, 613.318 491.011 C 636.484 505.664, 657.817 514.587, 675.322 516.946 C 698.495 520.069, 715.997 516.913, 734 506.366 C 741.862 501.760, 744.844 499.388, 755.011 489.653 L 764.047 481 758.274 481.020 C 755.098 481.030, 748.900 481.703, 744.500 482.513 C 740.100 483.324, 726.228 484.747, 713.673 485.674 C 692.085 487.270, 689.750 487.266, 670.673 485.607 C 659.578 484.643, 649.712 484.160, 648.750 484.534 C 647.788 484.908, 647 484.770, 647 484.226 C 647 483.683, 641.712 482.725, 635.250 482.097 C 628.788 481.468, 621.475 480.723, 619 480.440 C 607.772 479.156, 598.273 477.914, 595.750 477.401 C 594.237 477.093, 593 477.098, 593 477.413 M 934 482.333 C 934 484.214, 934.962 484.952, 936.598 484.324 C 938.725 483.508, 938.274 481, 936 481 C 934.900 481, 934 481.600, 934 482.333 M 556.323 484.601 C 555.538 486.647, 558 488.245, 559.729 486.810 C 560.705 486, 560.745 485.397, 559.890 484.367 C 558.385 482.553, 557.076 482.639, 556.323 484.601 M 689.070 489.957 C 686.838 491.336, 688.300 494.532, 691.020 494.221 C 692.360 494.068, 693.828 493.572, 694.280 493.120 C 695.452 491.948, 690.607 489.007, 689.070 489.957 M 513.250 494.360 C 510.019 495.960, 510.429 496.619, 515.443 497.881 C 521.258 499.346, 521.190 499.360, 520.820 496.750 C 520.644 495.512, 519.975 494.500, 519.333 494.500 C 518.692 494.500, 517.829 494.163, 517.417 493.750 C 516.524 492.858, 516.182 492.908, 513.250 494.360 M 933.970 495.536 C 932.984 496.724, 932.901 497.621, 933.665 498.834 C 935.086 501.090, 937.139 501.354, 939.519 499.587 C 941.105 498.410, 941.280 497.757, 940.398 496.309 C 938.932 493.903, 935.652 493.509, 933.970 495.536 M 419 505 C 419 506.333, 419.667 507, 421 507 C 422.333 507, 423 506.333, 423 505 C 423 503.667, 422.333 503, 421 503 C 419.667 503, 419 503.667, 419 505 M 430.441 507.433 C 428.921 508.554, 428.762 509.131, 429.708 510.090 C 430.660 511.057, 431.241 511.045, 432.458 510.035 C 434.081 508.688, 434.570 506, 433.191 506 C 432.746 506, 431.509 506.645, 430.441 507.433 M 541.017 512.479 C 540.008 513.695, 539.966 514.366, 540.842 515.242 C 542.533 516.933, 544.510 514.734, 543.279 512.533 C 542.427 511.012, 542.238 511.008, 541.017 512.479 M 408.669 515.814 C 407.403 517.213, 407.299 517.899, 408.214 518.814 C 409.817 520.417, 411.501 520.306, 413 518.500 C 413.993 517.303, 413.993 516.697, 413 515.500 C 411.387 513.557, 410.664 513.609, 408.669 515.814 M 912.505 519.995 C 911.544 521.057, 911.023 522.617, 911.347 523.463 C 912.121 525.480, 916.615 525.447, 917.393 523.418 C 918.354 520.914, 918.128 520.139, 916.126 519.067 C 914.685 518.296, 913.848 518.511, 912.505 519.995 M 921.688 518.646 C 920.216 520.117, 920.990 523.149, 922.750 522.810 C 923.712 522.624, 924.500 521.616, 924.500 520.570 C 924.500 518.580, 922.869 517.464, 921.688 518.646 M 434.473 520.044 C 433.679 521.329, 435.765 524, 437.563 524 C 439.344 524, 440.138 522.523, 439.396 520.590 C 438.711 518.804, 435.462 518.444, 434.473 520.044 M 556.695 531.700 C 554.266 532.330, 555.073 534.298, 558.074 535.065 C 560.988 535.811, 564 534.489, 564 532.465 C 564 531.010, 560.693 530.663, 556.695 531.700 M 626.560 532.107 C 625.660 534.678, 626.487 540.332, 627.828 540.778 C 628.871 541.124, 629.004 540.179, 628.450 536.359 C 627.662 530.935, 627.274 530.064, 626.560 532.107 M 639.200 534.200 C 637.529 535.871, 637.700 540.506, 639.487 541.989 C 641.312 543.504, 643.523 542.760, 644.913 540.163 C 645.728 538.640, 645.507 537.643, 643.905 535.607 C 641.604 532.681, 640.923 532.477, 639.200 534.200 M 428.446 535.087 C 427.501 536.616, 429.552 538.386, 431.433 537.664 C 432.295 537.333, 433 536.374, 433 535.531 C 433 533.784, 429.465 533.439, 428.446 535.087 M 445.181 546 C 445.142 548.759, 445.553 550, 446.504 550 C 448.515 550, 449.348 548.124, 448.038 546.545 C 447.244 545.589, 447.223 544.980, 447.968 544.520 C 449.293 543.701, 448.342 542, 446.559 542 C 445.691 542, 445.217 543.377, 445.181 546 M 588.380 549.452 C 587.633 551.398, 588.884 553.258, 590.518 552.631 C 591.242 552.354, 592.083 552.773, 592.386 553.563 C 593.125 555.489, 594.915 555.385, 595.687 553.372 C 596.089 552.327, 595.451 551.082, 593.906 549.894 C 590.994 547.655, 589.127 547.506, 588.380 549.452 M 652.250 551.989 C 648.260 554.422, 648.062 557.226, 651.646 560.548 C 654.922 563.584, 658.289 563.679, 660.961 560.811 C 664.015 557.534, 663.574 554.320, 659.750 551.989 C 657.962 550.899, 656.275 550.007, 656 550.007 C 655.725 550.007, 654.038 550.899, 652.250 551.989 M 448.666 557.427 C 448.067 558.988, 450.281 561.385, 451.342 560.325 C 451.704 559.963, 452 558.842, 452 557.833 C 452 555.672, 449.459 555.363, 448.666 557.427 M 734.743 556.750 C 733.950 558.337, 734.557 561.347, 735.750 561.747 C 736.570 562.023, 737 561.107, 737 559.083 C 737 556.280, 735.667 554.901, 734.743 556.750 M 477.250 567.944 C 474.661 570.103, 474.322 571.197, 476.500 570.362 C 477.325 570.045, 478 570.284, 478 570.893 C 478 572.422, 482.728 572.294, 483.282 570.750 C 483.888 569.059, 482.219 565.992, 480.715 566.033 C 480.047 566.052, 478.488 566.911, 477.250 567.944 M 455 571.073 C 455 572.504, 455.539 573.043, 456.739 572.812 C 459.345 572.310, 459.636 569, 457.073 569 C 455.642 569, 455 569.642, 455 571.073 M 455.958 580.550 C 454.896 581.831, 454.961 582.390, 456.336 583.764 C 457.888 585.317, 458.112 585.317, 459.664 583.764 C 461.039 582.390, 461.104 581.831, 460.042 580.550 C 459.334 579.698, 458.415 579, 458 579 C 457.585 579, 456.666 579.698, 455.958 580.550 M 483.224 591.176 C 482.375 592.025, 482.349 592.715, 483.129 593.655 C 484.465 595.265, 488 593.676, 488 591.465 C 488 589.711, 484.878 589.522, 483.224 591.176 M 808.580 605.871 C 808.284 606.350, 806.682 607.014, 805.021 607.346 C 801.289 608.092, 800.982 610.205, 804.677 609.710 C 806.868 609.417, 811.560 605, 809.681 605 C 809.371 605, 808.876 605.392, 808.580 605.871 M 826.688 613.646 C 825.216 615.117, 825.990 618.149, 827.750 617.810 C 828.712 617.624, 829.500 616.616, 829.500 615.570 C 829.500 613.580, 827.869 612.464, 826.688 613.646 M 537.667 616.667 C 535.286 619.048, 538.904 622.154, 541.525 619.979 C 542.665 619.033, 542.753 618.407, 541.890 617.367 C 540.673 615.902, 538.751 615.583, 537.667 616.667 M 782.921 621.595 C 782.291 622.354, 782.037 623.655, 782.357 624.487 C 783.195 626.672, 786.097 626.347, 786.710 624 C 786.998 622.900, 787.631 622, 788.117 622 C 788.602 622, 789 621.663, 788.999 621.250 C 788.998 619.902, 784.095 620.181, 782.921 621.595 M 794 625 C 794 627.784, 794.431 629, 795.417 629 C 796.196 629, 797.010 629.530, 797.226 630.177 C 797.463 630.889, 798.148 631.026, 798.961 630.524 C 800.033 629.862, 799.932 629.423, 798.460 628.347 C 796.670 627.038, 796.670 626.962, 798.462 625.652 C 800.271 624.329, 799.772 621.405, 797.931 622.543 C 797.419 622.859, 797 622.641, 797 622.059 C 797 621.477, 796.325 621, 795.500 621 C 794.417 621, 794 622.111, 794 625 M 615.362 634.500 C 614.477 636.805, 615.720 639, 617.910 639 C 620.537 639, 621.333 637.491, 620.011 635.021 C 618.740 632.647, 616.183 632.360, 615.362 634.500 M 485.035 636.934 C 483.595 639.626, 483.742 641.541, 485.503 643.003 C 487.334 644.522, 491.764 644.636, 493.200 643.200 C 494.707 641.693, 494.495 636.928, 492.875 635.902 C 490.399 634.333, 486.126 634.896, 485.035 636.934 M 673.200 646.200 C 670.285 649.115, 673.009 652.207, 676.059 649.446 C 677.533 648.113, 677.727 647.375, 676.874 646.348 C 675.496 644.688, 674.743 644.657, 673.200 646.200 M 786.080 648.404 C 783.957 650.961, 785.170 653.500, 788.514 653.500 C 791.165 653.500, 791.500 653.164, 791.500 650.500 C 791.500 648.220, 790.999 647.428, 789.412 647.202 C 788.264 647.038, 786.765 647.579, 786.080 648.404 M 641.701 666.632 C 641.316 667.018, 641 668.190, 641 669.236 C 641 670.638, 641.593 671.055, 643.250 670.820 C 644.721 670.611, 645.500 669.812, 645.500 668.514 C 645.500 666.530, 643.028 665.306, 641.701 666.632 M 574.655 673.829 C 571.138 677.715, 573.559 684, 578.571 684 C 581.412 684, 585 680.775, 585 678.223 C 585 672.876, 578.150 669.966, 574.655 673.829 M 669.224 680.176 C 668.365 681.035, 668.344 681.710, 669.146 682.676 C 670.636 684.471, 672.654 684.344, 673.396 682.410 C 674.574 679.341, 671.634 677.766, 669.224 680.176 M 625.441 693.096 C 624.384 694.806, 627.718 697.682, 629.126 696.274 C 629.753 695.647, 629.995 694.429, 629.664 693.567 C 628.972 691.764, 626.439 691.481, 625.441 693.096 M 619 711.333 C 619 713.214, 619.962 713.952, 621.598 713.324 C 623.725 712.508, 623.274 710, 621 710 C 619.900 710, 619 710.600, 619 711.333 M 585.739 720.126 C 583.605 721.320, 583.456 724.577, 585.500 725.362 C 587.726 726.216, 590 725.030, 590 723.015 C 590 720.418, 587.838 718.951, 585.739 720.126 M 613.378 726.414 C 605.454 729.921, 604.653 739.701, 611.980 743.490 C 616.513 745.834, 620.538 745.384, 624.184 742.127 C 628.557 738.219, 628.660 733.181, 624.450 729.029 C 620.788 725.418, 617.425 724.624, 613.378 726.414 M 715.655 763.829 C 713.454 766.261, 713.568 768.299, 716.030 770.527 C 718.940 773.161, 723.376 771.535, 723.822 767.671 C 724.427 762.431, 719.162 759.954, 715.655 763.829" stroke="none" fill="#fbfbfb" fill-rule="evenodd"/></svg>